<?xml version="1.0" encoding="utf-8"?>
<!-- Generator: Adobe Illustrator 15.1.0, SVG Export Plug-In . SVG Version: 6.00 Build 0)  -->
<!DOCTYPE svg PUBLIC "-//W3C//DTD SVG 1.1//EN" "http://www.w3.org/Graphics/SVG/1.1/DTD/svg11.dtd">
<svg version="1.1" id="Layer_2" xmlns="http://www.w3.org/2000/svg" xmlns:xlink="http://www.w3.org/1999/xlink" x="0px" y="0px"
	 width="500px" height="500px" viewBox="0 0 500 500" enable-background="new 0 0 500 500" xml:space="preserve">
<g>
	<path fill="#407B26" d="M500,63.831V436.17c0,35.254-28.576,63.83-63.83,63.83H63.831C28.576,500,0,471.424,0,436.17V63.831
		C0,28.576,28.576,0,63.831,0H436.17C471.424,0,500,28.576,500,63.831z"/>
	<g>
		<rect x="106.928" y="67.299" fill="#E9A329" width="286.143" height="83.746"/>
		<g>
			<g>
				<path fill="#FFFFFF" d="M320.954,96.384c0-4.289,2.938-7.308,7.148-7.308c4.209,0,6.989,2.939,7.07,7.308
					c0,4.13-2.861,7.227-7.149,7.227C323.893,103.611,320.954,100.514,320.954,96.384z M320.954,122.04
					c0-4.21,2.938-7.308,7.148-7.308c4.209,0,6.989,3.017,7.07,7.308c0,4.129-2.861,7.228-7.149,7.228
					C323.893,129.267,320.954,126.168,320.954,122.04z"/>
				<path fill="#FFFFFF" d="M340.412,141.22c4.368-7.307,8.021-18.029,8.021-32.089c0-14.058-3.574-24.622-8.021-32.009h8.419
					c4.21,6.116,9.055,16.521,9.055,32.009c-0.079,15.489-4.845,25.894-9.055,32.089H340.412z"/>
			</g>
		</g>
		<g>
			<path fill="#FFFFFF" d="M395.077,452.15H104.923c-9.952,0-18.048-8.097-18.048-18.048V65.898c0-9.952,8.096-18.048,18.048-18.048
				h290.154c9.951,0,18.048,8.097,18.048,18.048v368.205C413.125,444.054,405.028,452.15,395.077,452.15z M106.928,432.097h286.143
				V67.903H106.928V432.097z"/>
		</g>
	</g>
</g>
</svg>
