<?xml version="1.0" encoding="utf-8"?>
<!-- Generator: Adobe Illustrator 15.1.0, SVG Export Plug-In . SVG Version: 6.00 Build 0)  -->
<!DOCTYPE svg PUBLIC "-//W3C//DTD SVG 1.1//EN" "http://www.w3.org/Graphics/SVG/1.1/DTD/svg11.dtd">
<svg version="1.1" id="Layer_2" xmlns="http://www.w3.org/2000/svg" xmlns:xlink="http://www.w3.org/1999/xlink" x="0px" y="0px"
	 width="1051.415px" height="307.153px" viewBox="0 0 1051.415 307.153" enable-background="new 0 0 1051.415 307.153"
	 xml:space="preserve">
<g>
	<g>
		<path fill="#407B26" d="M230.364,96.394v114.365c0,10.828-8.777,19.606-19.605,19.606H96.394
			c-10.828,0-19.605-8.778-19.605-19.606V96.394c0-10.828,8.777-19.605,19.605-19.605h114.365
			C221.587,76.788,230.364,85.565,230.364,96.394z"/>
		<g>
			<rect x="109.632" y="97.459" fill="#E9A329" width="87.889" height="25.723"/>
			<g>
				<g>
					<path fill="#FFFFFF" d="M175.37,106.393c0-1.317,0.902-2.245,2.196-2.245c1.292,0,2.146,0.903,2.171,2.245
						c0,1.269-0.879,2.22-2.196,2.22C176.272,108.612,175.37,107.661,175.37,106.393z M175.37,114.273
						c0-1.293,0.902-2.245,2.196-2.245c1.292,0,2.146,0.927,2.171,2.245c0,1.268-0.879,2.22-2.196,2.22
						C176.272,116.493,175.37,115.541,175.37,114.273z"/>
					<path fill="#FFFFFF" d="M181.347,120.164c1.342-2.244,2.464-5.538,2.464-9.856c0-4.318-1.099-7.563-2.464-9.832h2.586
						c1.293,1.879,2.78,5.075,2.78,9.832c-0.024,4.757-1.487,7.953-2.78,9.856H181.347z"/>
				</g>
			</g>
			<g>
				<path fill="#FFFFFF" d="M198.137,215.667h-89.121c-3.057,0-5.543-2.487-5.543-5.543V97.029c0-3.057,2.486-5.543,5.543-5.543
					h89.121c3.057,0,5.544,2.487,5.544,5.543v113.095C203.681,213.18,201.193,215.667,198.137,215.667z M109.632,209.508h87.889
					V97.645h-87.889V209.508z"/>
			</g>
		</g>
	</g>
	<g>
		<path d="M268.758,190.506v-74.382h13.809l30.757,47.495v-47.495h14.229v74.382h-13.496l-30.966-48.96v48.96H268.758z"/>
		<path d="M344.712,141.441c5.648-5.65,12.972-8.788,20.609-8.788c8.16,0,14.96,2.72,20.608,8.056
			c5.858,5.649,9.206,13.391,9.206,21.132c0,8.474-2.719,15.587-8.368,21.341c-5.65,5.858-12.868,8.788-21.237,8.788
			s-15.274-2.93-21.027-8.998c-5.336-5.753-8.266-12.867-8.266-20.818C336.237,154.309,339.167,146.986,344.712,141.441z
			 M365.636,178.998c9.519,0,15.901-6.485,15.901-17.261c0-9.624-6.905-16.215-15.901-16.215c-9.416,0-15.902,6.8-15.902,16.529
			C349.733,172.616,356.011,178.998,365.636,178.998z"/>
		<path d="M407.379,145.939h-8.578v-11.612h8.578v-18.203h13.077v18.203h8.684v11.612h-8.684v44.566h-13.077V145.939z"/>
		<path d="M435.418,128.573v-12.449h12.764v12.449H435.418z M435.418,134.327h12.764v56.179h-12.764V134.327z"/>
		<path d="M484.484,145.939h-9.415v44.566h-12.66v-44.566h-6.695v-11.612h6.277c0-0.523,0-1.046,0-1.569
			c0-11.821,6.486-17.575,19.773-17.575c0.836,0,1.778,0.105,2.72,0.105v11.717c-0.314,0-0.629,0-0.941,0
			c-5.754,0-8.266,1.674-8.266,6.277c0,0.313,0,0.627,0,1.046h9.207V145.939z"/>
		<path d="M490.865,128.573v-12.449h12.764v12.449H490.865z M490.865,134.327h12.764v56.179h-12.764V134.327z"/>
		<path d="M541.082,145.521c-8.787,0-15.588,7.009-15.588,16.843c0,9.52,6.801,16.633,16.006,16.633
			c7.115,0,11.823-3.034,14.124-9.101h13.913c-3.348,13.809-13.809,22.074-27.932,22.074c-8.369,0-15.483-3.034-21.132-8.788
			c-5.44-5.545-8.475-13.286-8.475-20.714c0-7.846,2.72-14.855,8.055-20.4c5.858-6.172,13.286-9.416,21.761-9.416
			c13.6,0,24.585,8.265,27.827,21.655h-13.913C552.59,148.451,547.777,145.521,541.082,145.521z"/>
		<path d="M621.952,183.602c-3.139,5.649-8.787,8.159-17.471,8.159c-16.738,0-29.188-12.867-29.188-29.605
			c0-7.847,2.825-15.169,8.056-20.61c5.649-5.963,12.345-8.683,20.818-8.683c8.16,0,14.019,2.72,17.681,8.265v-6.8h12.763v56.179
			h-12.658V183.602z M604.899,178.58c8.16,0,15.588-7.323,15.588-16.006c0-9.415-7.532-16.739-15.798-16.739
			c-8.683,0-16.006,7.009-16.006,16.111C588.684,171.675,596.111,178.58,604.899,178.58z"/>
		<path d="M650.097,145.939h-8.578v-11.612h8.578v-18.203h13.078v18.203h8.683v11.612h-8.683v44.566h-13.078V145.939z"/>
		<path d="M678.135,128.573v-12.449h12.764v12.449H678.135z M678.135,134.327h12.764v56.179h-12.764V134.327z"/>
		<path d="M707.638,141.441c5.648-5.65,12.972-8.788,20.609-8.788c8.16,0,14.96,2.72,20.608,8.056
			c5.858,5.649,9.206,13.391,9.206,21.132c0,8.474-2.719,15.587-8.368,21.341c-5.65,5.858-12.868,8.788-21.237,8.788
			s-15.274-2.93-21.028-8.998c-5.335-5.753-8.265-12.867-8.265-20.818C699.163,154.309,702.093,146.986,707.638,141.441z
			 M728.562,178.998c9.519,0,15.901-6.485,15.901-17.261c0-9.624-6.905-16.215-15.901-16.215c-9.416,0-15.902,6.8-15.902,16.529
			C712.659,172.616,718.937,178.998,728.562,178.998z"/>
		<path d="M779.093,140.709c3.87-5.126,8.683-7.533,15.064-7.533c8.159,0,14.124,3.139,18.099,9.207
			c3.348,5.23,3.661,11.089,3.661,18.412v29.711h-13.076v-24.899c0-13.286-2.093-19.667-11.613-19.667
			c-9.52,0-12.24,6.904-12.24,20.505v24.062h-12.658v-56.179h12.764V140.709z"/>
		<path d="M827.95,116.124h11.09c1.674,0,3.348,0,4.916,0c4.918,0,9.103,0.209,12.764,1.674c8.16,3.348,12.658,9.834,12.658,18.203
			c0,6.905-2.615,11.926-7.636,14.437c7.322,2.197,11.821,8.788,11.821,17.366c0,7.114-2.825,13.496-7.323,17.366
			c-5.545,4.708-11.613,5.335-19.667,5.335H827.95V116.124z M843.644,146.044c7.95,0,11.926-2.825,11.926-8.683
			c0-5.649-3.766-8.16-11.508-8.16h-2.093v16.843H843.644z M846.363,177.429c8.578,0,12.868-2.72,12.868-9.102
			c0-6.695-4.395-10.252-12.868-10.252h-4.395v19.354H846.363z"/>
		<path d="M924.304,183.602c-3.14,5.649-8.788,8.159-17.471,8.159c-16.738,0-29.188-12.867-29.188-29.605
			c0-7.847,2.825-15.169,8.056-20.61c5.649-5.963,12.345-8.683,20.818-8.683c8.16,0,14.019,2.72,17.681,8.265v-6.8h12.763v56.179
			h-12.658V183.602z M907.251,178.58c8.16,0,15.588-7.323,15.588-16.006c0-9.415-7.532-16.739-15.798-16.739
			c-8.683,0-16.006,7.009-16.006,16.111C891.035,171.675,898.463,178.58,907.251,178.58z"/>
		<path d="M961.026,161.841v28.665H947.95v-56.179h12.24v6.486c3.87-4.917,8.368-7.323,14.437-7.323v12.24
			C963.434,146.567,961.026,151.38,961.026,161.841z"/>
	</g>
</g>
</svg>
